# xmcd CD database file
#
# Track frame offsets:
#	150
#	18150
#	38080
#	53685
#	74160
#	101420
#	120875
#	127882
#	145960
#	167060
#	197377
#	215855
#	232990
#	249487
#
# Disc length: 3842 seconds
#
# Revision: 0
# Processed by: cddbd v1.5.1PL2 Copyright (c) Steve Scherf et al.
# Submitted via: CDex 1.51
#
DISCID=bb0f000e
DTITLE=Six Ride - ＴＩＣＫＥＴ ＴＯ ＲＩＤＥ　
DYEAR=2003
DGENRE=Heavy Metal
TTITLE0=茜色の空
TTITLE1=HANG ON MY SOUL
TTITLE2=SOME LIE
TTITLE3=That I wish
TTITLE4=想い人へ
TTITLE5=SICK FISH
TTITLE6=Sigma 6
TTITLE7=SIGNAL X
TTITLE8=アルマレトラ
TTITLE9=Dec.
TTITLE10=裁きの夜
TTITLE11=PB&BB
TTITLE12=「イ・キ・テ・イ・ナ・サ・イ」
TTITLE13=REGRET DAYS
EXTD=YEAR: 2003
EXTT0=
EXTT1=
EXTT2=
EXTT3=
EXTT4=
EXTT5=
EXTT6=
EXTT7=
EXTT8=
EXTT9=
EXTT10=
EXTT11=
EXTT12=
EXTT13=
PLAYORDER=
